<svg width="260" height="357" viewBox="0 0 260 357" fill="none" xmlns="http://www.w3.org/2000/svg">
<g clip-path="url(#clip0_1_2)">
<path d="M52.41 280.04H219.9C225.34 280.04 229.75 275.63 229.75 270.19V44.33C229.75 38.89 225.34 34.48 219.9 34.48H52.41V280.04Z" fill="#66A36A"/>
<path d="M47.56 280.04H215.05C220.49 280.04 224.9 275.63 224.9 270.19V44.33C224.9 38.89 220.49 34.48 215.05 34.48H47.56V280.04Z" fill="#C2C0B4"/>
<path d="M41.47 280.04H208.96C214.4 280.04 218.81 275.63 218.81 270.19V44.33C218.81 38.89 214.4 34.48 208.96 34.48H41.47V280.04Z" fill="white"/>
<path d="M35.39 280.04H202.88C208.32 280.04 212.73 275.63 212.73 270.19V44.33C212.73 38.89 208.32 34.48 202.88 34.48H35.39V280.04Z" fill="#C2C0B4"/>
<path d="M29.3 280.04H196.79C202.23 280.04 206.64 275.63 206.64 270.19V44.33C206.64 38.89 202.23 34.48 196.79 34.48H29.3V280.04Z" fill="#66A36A"/>
<path d="M54.31 34.48H29.3V280.04H54.31V34.48Z" fill="#617570"/>
<path d="M185.378 92.0901V79.5801L62.7382 79.5801V92.0901L185.378 92.0901Z" fill="#617570"/>
<path d="M181.753 109.135V101.935L66.3634 101.935V109.135L181.753 109.135Z" fill="#617570"/>
<path d="M29.606 331.406V293.998H42.2458C45.1682 293.998 47.5671 294.498 49.4424 295.496C51.3176 296.482 52.7058 297.84 53.6069 299.569C54.508 301.298 54.9585 303.265 54.9585 305.469C54.9585 307.673 54.508 309.628 53.6069 311.332C52.7058 313.037 51.3237 314.377 49.4606 315.351C47.5975 316.313 45.2169 316.794 42.3188 316.794H32.0901V312.702H42.1727C44.1697 312.702 45.7771 312.41 46.9948 311.825C48.2247 311.241 49.1136 310.413 49.6615 309.341C50.2217 308.258 50.5018 306.967 50.5018 305.469C50.5018 303.971 50.2217 302.662 49.6615 301.542C49.1014 300.422 48.2064 299.557 46.9765 298.948C45.7466 298.327 44.121 298.017 42.0996 298.017H34.1359V331.406H29.606ZM47.214 314.602L56.4198 331.406H51.1593L42.0996 314.602H47.214ZM73.3838 331.991C70.6805 331.991 68.3487 331.394 66.3882 330.201C64.4398 328.995 62.936 327.315 61.8766 325.159C60.8294 322.992 60.3058 320.471 60.3058 317.597C60.3058 314.724 60.8294 312.191 61.8766 309.999C62.936 307.795 64.4094 306.078 66.2968 304.848C68.1964 303.606 70.4127 302.985 72.9455 302.985C74.4067 302.985 75.8497 303.229 77.2744 303.716C78.6991 304.203 79.9959 304.994 81.1649 306.09C82.3339 307.174 83.2655 308.611 83.9596 310.401C84.6536 312.191 85.0007 314.395 85.0007 317.013V318.839H63.3744V315.113H80.617C80.617 313.53 80.3004 312.118 79.6672 310.876C79.0461 309.634 78.1572 308.653 77.0004 307.935C75.8558 307.217 74.5041 306.857 72.9455 306.857C71.2285 306.857 69.7429 307.283 68.4887 308.136C67.2466 308.976 66.2907 310.072 65.621 311.424C64.9513 312.775 64.6164 314.224 64.6164 315.771V318.255C64.6164 320.374 64.9817 322.17 65.7123 323.643C66.4551 325.105 67.4841 326.219 68.7992 326.986C70.1143 327.741 71.6425 328.118 73.3838 328.118C74.5163 328.118 75.5392 327.96 76.4524 327.643C77.3779 327.315 78.1755 326.828 78.8452 326.182C79.515 325.525 80.0325 324.709 80.3978 323.735L84.5623 324.904C84.1239 326.316 83.3872 327.558 82.3522 328.63C81.3171 329.689 80.0386 330.517 78.5164 331.114C76.9943 331.698 75.2834 331.991 73.3838 331.991ZM102.956 331.991C100.325 331.991 98.0605 331.37 96.1609 330.128C94.2613 328.885 92.8 327.175 91.7772 324.995C90.7543 322.815 90.2429 320.325 90.2429 317.524C90.2429 314.675 90.7665 312.16 91.8137 309.981C92.8731 307.789 94.3465 306.078 96.234 304.848C98.1336 303.606 100.35 302.985 102.883 302.985C104.855 302.985 106.633 303.35 108.216 304.081C109.799 304.812 111.096 305.834 112.107 307.15C113.117 308.465 113.744 309.999 113.988 311.752H109.677C109.349 310.474 108.618 309.341 107.485 308.355C106.365 307.357 104.855 306.857 102.956 306.857C101.275 306.857 99.8018 307.296 98.5354 308.172C97.2812 309.037 96.3009 310.261 95.5947 311.844C94.9006 313.415 94.5535 315.259 94.5535 317.378C94.5535 319.546 94.8945 321.433 95.5764 323.041C96.2705 324.648 97.2446 325.896 98.4989 326.785C99.7653 327.674 101.251 328.118 102.956 328.118C104.076 328.118 105.093 327.923 106.006 327.534C106.919 327.144 107.693 326.584 108.326 325.853C108.959 325.123 109.409 324.246 109.677 323.223H113.988C113.744 324.879 113.142 326.371 112.18 327.698C111.23 329.013 109.97 330.061 108.399 330.84C106.84 331.607 105.026 331.991 102.956 331.991ZM136.363 313.36V317.378H119.997V313.36H136.363ZM144.532 331.406V293.998H148.843V307.807H149.208C149.525 307.32 149.963 306.699 150.524 305.944C151.096 305.177 151.912 304.495 152.971 303.898C154.043 303.289 155.492 302.985 157.318 302.985C159.681 302.985 161.763 303.576 163.565 304.757C165.367 305.938 166.774 307.612 167.784 309.78C168.795 311.947 169.3 314.504 169.3 317.451C169.3 320.422 168.795 322.998 167.784 325.178C166.774 327.345 165.373 329.025 163.583 330.219C161.793 331.4 159.729 331.991 157.391 331.991C155.589 331.991 154.146 331.692 153.062 331.096C151.979 330.487 151.145 329.799 150.56 329.032C149.976 328.252 149.525 327.607 149.208 327.095H148.697V331.406H144.532ZM148.77 317.378C148.77 319.497 149.081 321.366 149.702 322.986C150.323 324.593 151.23 325.853 152.423 326.767C153.616 327.668 155.078 328.118 156.807 328.118C158.609 328.118 160.113 327.643 161.318 326.694C162.536 325.732 163.449 324.441 164.058 322.821C164.679 321.19 164.99 319.375 164.99 317.378C164.99 315.406 164.685 313.628 164.077 312.045C163.48 310.449 162.573 309.189 161.355 308.264C160.149 307.326 158.633 306.857 156.807 306.857C155.053 306.857 153.58 307.302 152.387 308.191C151.193 309.067 150.292 310.297 149.683 311.88C149.074 313.451 148.77 315.284 148.77 317.378ZM187.292 331.991C184.759 331.991 182.537 331.388 180.625 330.182C178.725 328.977 177.24 327.29 176.168 325.123C175.109 322.955 174.579 320.422 174.579 317.524C174.579 314.602 175.109 312.051 176.168 309.871C177.24 307.691 178.725 305.999 180.625 304.793C182.537 303.588 184.759 302.985 187.292 302.985C189.825 302.985 192.041 303.588 193.941 304.793C195.852 305.999 197.338 307.691 198.397 309.871C199.469 312.051 200.005 314.602 200.005 317.524C200.005 320.422 199.469 322.955 198.397 325.123C197.338 327.29 195.852 328.977 193.941 330.182C192.041 331.388 189.825 331.991 187.292 331.991ZM187.292 328.118C189.216 328.118 190.799 327.625 192.041 326.639C193.283 325.652 194.202 324.356 194.799 322.748C195.396 321.141 195.694 319.4 195.694 317.524C195.694 315.649 195.396 313.902 194.799 312.282C194.202 310.663 193.283 309.354 192.041 308.355C190.799 307.357 189.216 306.857 187.292 306.857C185.368 306.857 183.785 307.357 182.543 308.355C181.301 309.354 180.382 310.663 179.785 312.282C179.188 313.902 178.89 315.649 178.89 317.524C178.89 319.4 179.188 321.141 179.785 322.748C180.382 324.356 181.301 325.652 182.543 326.639C183.785 327.625 185.368 328.118 187.292 328.118ZM217.983 331.991C215.45 331.991 213.227 331.388 211.316 330.182C209.416 328.977 207.93 327.29 206.859 325.123C205.799 322.955 205.27 320.422 205.27 317.524C205.27 314.602 205.799 312.051 206.859 309.871C207.93 307.691 209.416 305.999 211.316 304.793C213.227 303.588 215.45 302.985 217.983 302.985C220.515 302.985 222.732 303.588 224.631 304.793C226.543 305.999 228.029 307.691 229.088 309.871C230.16 312.051 230.695 314.602 230.695 317.524C230.695 320.422 230.16 322.955 229.088 325.123C228.029 327.29 226.543 328.977 224.631 330.182C222.732 331.388 220.515 331.991 217.983 331.991ZM217.983 328.118C219.906 328.118 221.49 327.625 222.732 326.639C223.974 325.652 224.893 324.356 225.49 322.748C226.086 321.141 226.385 319.4 226.385 317.524C226.385 315.649 226.086 313.902 225.49 312.282C224.893 310.663 223.974 309.354 222.732 308.355C221.49 307.357 219.906 306.857 217.983 306.857C216.059 306.857 214.476 307.357 213.234 308.355C211.991 309.354 211.072 310.663 210.475 312.282C209.879 313.902 209.58 315.649 209.58 317.524C209.58 319.4 209.879 321.141 210.475 322.748C211.072 324.356 211.991 325.652 213.234 326.639C214.476 327.625 216.059 328.118 217.983 328.118ZM241.294 321.177L241.221 315.844H242.098L254.372 303.35H259.705L246.627 316.575H246.262L241.294 321.177ZM237.275 331.406V293.998H241.586V331.406H237.275ZM255.103 331.406L244.143 317.524L247.212 314.529L260.582 331.406H255.103Z" fill="black"/>
</g>
<defs>
<clipPath id="clip0_1_2">
<rect width="259.06" height="356.96" fill="white"/>
</clipPath>
</defs>
</svg>
